<?xml version="1.0" encoding="UTF-8" standalone="no"?>
<svg width="800" height="600" xmlns="http://www.w3.org/2000/svg">
  <style>
    .box {
      fill: #f0f0f0;
      stroke: #333;
      stroke-width: 2;
      rx: 10;
      ry: 10;
    }
    .module {
      fill: #d7e9f7;
      stroke: #2980b9;
    }
    .external {
      fill: #fdebd0;
      stroke: #e67e22;
    }
    .data {
      fill: #e8f8f5;
      stroke: #16a085;
    }
    .ui {
      fill: #f9ebea;
      stroke: #c0392b;
    }
    .text {
      font-family: Arial, sans-serif;
      font-size: 14px;
      text-anchor: middle;
      dominant-baseline: middle;
    }
    .title {
      font-family: Arial, sans-serif;
      font-size: 20px;
      font-weight: bold;
      text-anchor: middle;
    }
    .arrow {
      stroke: #333;
      stroke-width: 2;
      marker-end: url(#arrowhead);
    }
    .small-text {
      font-family: Arial, sans-serif;
      font-size: 10px;
      text-anchor: middle;
    }
  </style>
  
  <defs>
    <marker id="arrowhead" markerWidth="10" markerHeight="7" refX="9" refY="3.5" orient="auto">
      <polygon points="0 0, 10 3.5, 0 7" fill="#333" />
    </marker>
  </defs>
  
  <rect width="100%" height="100%" fill="white" />
  
  <!-- Title -->
  <text x="400" y="30" class="title">Davinci3 Wiki Architecture</text>
  
  <!-- Core Modules -->
  <g id="core-modules">
    <rect x="280" y="70" width="240" height="220" rx="15" ry="15" fill="#e8f4fc" stroke="#2471a3" stroke-width="2" />
    <text x="400" y="90" class="text" font-weight="bold">Core Modules</text>
    
    <!-- Error Handling -->
    <rect x="300" y="110" width="200" height="30" class="box module" />
    <text x="400" y="125" class="text">Error Handling</text>
    
    <!-- Parser -->
    <rect x="300" y="150" width="90" height="30" class="box module" />
    <text x="345" y="165" class="text">Parser</text>
    
    <!-- Database -->
    <rect x="410" y="150" width="90" height="30" class="box module" />
    <text x="455" y="165" class="text">Database</text>
    
    <!-- Vector -->
    <rect x="300" y="190" width="90" height="30" class="box module" />
    <text x="345" y="205" class="text">Vector</text>
    
    <!-- LLM -->
    <rect x="410" y="190" width="90" height="30" class="box module" />
    <text x="455" y="205" class="text">LLM</text>
    
    <!-- Installer -->
    <rect x="300" y="230" width="90" height="30" class="box module" />
    <text x="345" y="245" class="text">Installer</text>
    
    <!-- API -->
    <rect x="410" y="230" width="90" height="30" class="box module" />
    <text x="455" y="245" class="text">API</text>
  </g>
  
  <!-- External Components -->
  <g id="external">
    <rect x="600" y="70" width="140" height="160" rx="15" ry="15" fill="#fef5e7" stroke="#d35400" stroke-width="2" />
    <text x="670" y="90" class="text" font-weight="bold">External Services</text>
    
    <!-- Wikipedia -->
    <rect x="620" y="110" width="100" height="30" class="box external" />
    <text x="670" y="125" class="text">Wikipedia</text>
    
    <!-- SQLite -->
    <rect x="620" y="150" width="100" height="30" class="box external" />
    <text x="670" y="165" class="text">SQLite</text>
    
    <!-- LMDB -->
    <rect x="620" y="190" width="100" height="30" class="box external" />
    <text x="670" y="205" class="text">LMDB</text>
  </g>
  
  <!-- UI Components -->
  <g id="ui">
    <rect x="280" y="320" width="240" height="140" rx="15" ry="15" fill="#fadbd8" stroke="#922b21" stroke-width="2" />
    <text x="400" y="340" class="text" font-weight="bold">UI Components (Flutter)</text>
    
    <!-- Pages -->
    <rect x="300" y="360" width="90" height="30" class="box ui" />
    <text x="345" y="375" class="text">Pages</text>
    
    <!-- Widgets -->
    <rect x="410" y="360" width="90" height="30" class="box ui" />
    <text x="455" y="375" class="text">Widgets</text>
    
    <!-- Services -->
    <rect x="300" y="410" width="90" height="30" class="box ui" />
    <text x="345" y="425" class="text">Services</text>
    
    <!-- Models -->
    <rect x="410" y="410" width="90" height="30" class="box ui" />
    <text x="455" y="425" class="text">Models</text>
  </g>
  
  <!-- Data Storage -->
  <g id="storage">
    <rect x="600" y="320" width="140" height="140" rx="15" ry="15" fill="#d4efdf" stroke="#0e6655" stroke-width="2" />
    <text x="670" y="340" class="text" font-weight="bold">Data Storage</text>
    
    <!-- Articles -->
    <rect x="620" y="360" width="100" height="30" class="box data" />
    <text x="670" y="375" class="text">Articles DB</text>
    
    <!-- Vector Store -->
    <rect x="620" y="410" width="100" height="30" class="box data" />
    <text x="670" y="425" class="text">Vector Store</text>
  </g>
  
  <!-- User -->
  <g id="user">
    <rect x="60" y="320" width="140" height="140" rx="15" ry="15" fill="#ebdef0" stroke="#6c3483" stroke-width="2" />
    <text x="130" y="340" class="text" font-weight="bold">User Interfaces</text>
    
    <!-- CLI -->
    <rect x="80" y="360" width="100" height="30" class="box" fill="#e8daef" stroke="#7d3c98" />
    <text x="130" y="375" class="text">CLI</text>
    
    <!-- Desktop -->
    <rect x="80" y="410" width="100" height="30" class="box" fill="#e8daef" stroke="#7d3c98" />
    <text x="130" y="425" class="text">Desktop</text>
  </g>
  
  <!-- LLM Service -->
  <g id="llm-service">
    <rect x="60" y="70" width="140" height="70" rx="15" ry="15" fill="#fef5e7" stroke="#d35400" stroke-width="2" />
    <text x="130" y="90" class="text" font-weight="bold">LLM Service</text>
    
    <!-- Ollama -->
    <rect x="80" y="110" width="100" height="30" class="box external" />
    <text x="130" y="125" class="text">Ollama</text>
  </g>
  
  <!-- Arrows -->
  <!-- Parser to Database -->
  <line x1="345" y1="180" x2="410" y2="180" class="arrow" />
  
  <!-- Database to Vector -->
  <line x1="410" y1="165" x2="345" y2="190" class="arrow" />
  
  <!-- Vector to LLM -->
  <line x1="390" y1="205" x2="410" y2="205" class="arrow" />
  
  <!-- External Services -->
  <line x1="500" y1="125" x2="620" y2="125" class="arrow" />
  <text x="560" y="115" class="small-text">Download</text>
  
  <line x1="455" y1="180" x2="620" y2="165" class="arrow" />
  <text x="560" y="160" class="small-text">Store</text>
  
  <line x1="390" y1="190" x2="620" y2="190" class="arrow" />
  <text x="510" y="180" class="small-text">Store Embeddings</text>
  
  <!-- Core to UI -->
  <line x1="400" y1="290" x2="400" y2="320" class="arrow" />
  <text x="410" y="305" class="small-text">API</text>
  
  <!-- UI to Data Storage -->
  <line x1="520" y1="375" x2="620" y2="375" class="arrow" />
  <text x="570" y="365" class="small-text">Query</text>
  
  <line x1="520" y1="425" x2="620" y2="425" class="arrow" />
  <text x="570" y="415" class="small-text">Semantic Search</text>
  
  <!-- LLM Service to Core -->
  <line x1="180" y1="125" x2="300" y2="125" class="arrow" />
  <text x="240" y="115" class="small-text">Text Generation</text>
  
  <!-- User to UI -->
  <line x1="200" y1="385" x2="280" y2="385" class="arrow" />
  <text x="240" y="375" class="small-text">Interaction</text>
  
  <!-- Database to Data Storage -->
  <line x1="455" y1="230" x2="670" y2="360" class="arrow" stroke-dasharray="5,5" />
  <text x="550" y="280" class="small-text">Manage</text>
  
  <!-- Vector to Data Storage -->
  <line x1="345" y1="230" x2="670" y2="410" class="arrow" stroke-dasharray="5,5" />
  <text x="480" y="310" class="small-text">Manage</text>
  
  <!-- Legend -->
  <g id="legend" transform="translate(60, 500)">
    <rect x="0" y="0" width="680" height="80" rx="5" ry="5" fill="#f8f9f9" stroke="#7f8c8d" stroke-width="1" />
    <text x="340" y="20" class="text" font-weight="bold">Legend</text>
    
    <rect x="20" y="40" width="20" height="20" class="box module" />
    <text x="50" y="50" class="text" text-anchor="start">Core Module</text>
    
    <rect x="150" y="40" width="20" height="20" class="box external" />
    <text x="180" y="50" class="text" text-anchor="start">External Service</text>
    
    <rect x="300" y="40" width="20" height="20" class="box data" />
    <text x="330" y="50" class="text" text-anchor="start">Data Storage</text>
    
    <rect x="450" y="40" width="20" height="20" class="box ui" />
    <text x="480" y="50" class="text" text-anchor="start">UI Component</text>
    
    <line x1="580" y1="40" x2="620" y2="40" class="arrow" />
    <text x="630" y="50" class="text" text-anchor="start">Data Flow</text>
  </g>
</svg> 